<svg width="40" height="17" viewBox="0 0 40 17" fill="none" xmlns="http://www.w3.org/2000/svg">
<path d="M7.30869 2.11742C6.83994 2.67211 6.08978 3.10977 5.3397 3.04719C5.24595 2.29719 5.61314 1.50016 6.04291 1.00789C6.51166 0.437578 7.33212 0.03125 7.99627 0C8.07439 0.781328 7.76963 1.54703 7.30869 2.11742ZM7.98853 3.1957C6.90244 3.1332 5.97267 3.81289 5.45697 3.81289C4.93353 3.81289 4.14431 3.22695 3.28486 3.24258C2.16759 3.2582 1.12837 3.89102 0.557984 4.89898C-0.614047 6.91484 0.253297 9.89961 1.38619 11.5404C1.94095 12.353 2.60509 13.2437 3.48017 13.2124C4.30845 13.1812 4.63658 12.6734 5.63673 12.6734C6.64463 12.6734 6.93377 13.2124 7.80884 13.1968C8.71517 13.1812 9.28556 12.3843 9.84033 11.5716C10.4731 10.6497 10.731 9.75109 10.7467 9.70422C10.731 9.68859 8.9965 9.02453 8.98088 7.02422C8.96525 5.35219 10.3482 4.55523 10.4107 4.50836C9.62931 3.35195 8.41048 3.22695 7.98853 3.1957ZM14.2627 0.929766V13.1109H16.1535V8.94641H18.771C21.1619 8.94641 22.8418 7.30562 22.8418 4.93031C22.8418 2.55508 21.1931 0.929844 18.8335 0.929844L14.2627 0.929766ZM16.1535 2.52375H18.3335C19.9743 2.52375 20.9119 3.39883 20.9119 4.93805C20.9119 6.47727 19.9743 7.36023 18.3256 7.36023H16.1535V2.52375ZM26.2952 13.2046C27.4829 13.2046 28.5845 12.603 29.0846 11.6498H29.1237V13.1109H30.8739V7.04766C30.8739 5.28969 29.4675 4.15672 27.3031 4.15672C25.2951 4.15672 23.8106 5.30531 23.7559 6.88359H25.4592C25.5999 6.13352 26.2952 5.64125 27.2485 5.64125C28.4049 5.64125 29.0534 6.18039 29.0534 7.17273V7.84461L26.6937 7.98523C24.4981 8.11805 23.3106 9.01664 23.3106 10.5794C23.3106 12.1577 24.5372 13.2046 26.2952 13.2046ZM26.8031 11.7591C25.7952 11.7591 25.1545 11.2748 25.1545 10.5324C25.1545 9.7668 25.7717 9.32141 26.9516 9.25109L29.0534 9.11828V9.80578C29.0534 10.9466 28.0845 11.7591 26.8031 11.7591M33.2102 16.4237C35.0542 16.4237 35.9214 15.7206 36.6793 13.5875L39.9999 4.27391H38.0778L35.851 11.47H35.812L33.5852 4.27391H31.6084L34.8118 13.1421L34.6399 13.6812C34.3509 14.5954 33.882 14.947 33.046 14.947C32.8976 14.947 32.6085 14.9314 32.4913 14.9158V16.3769C32.6006 16.4081 33.0694 16.4237 33.2101 16.4237" fill="black"/>
</svg>
