<svg width="22" height="22" viewBox="0 0 22 22" fill="none" xmlns="http://www.w3.org/2000/svg">
<path fill-rule="evenodd" clip-rule="evenodd" d="M10.75 1.5C5.64137 1.5 1.5 5.64137 1.5 10.75C1.5 12.2311 1.84753 13.6288 2.4648 14.8681C2.71254 15.3655 2.80794 15.9603 2.65163 16.5445L2.05602 18.7705C1.94663 19.1793 2.32066 19.5534 2.72949 19.444L4.95553 18.8484C5.53973 18.6921 6.13451 18.7875 6.63191 19.0352C7.87121 19.6525 9.26894 20 10.75 20C15.8586 20 20 15.8586 20 10.75C20 5.64137 15.8586 1.5 10.75 1.5ZM0 10.75C0 4.81294 4.81294 0 10.75 0C16.6871 0 21.5 4.81294 21.5 10.75C21.5 16.6871 16.6871 21.5 10.75 21.5C9.03169 21.5 7.40552 21.0963 5.96315 20.3779C5.74791 20.2707 5.52814 20.2479 5.34324 20.2974L3.1172 20.893C1.59337 21.3007 0.199273 19.9066 0.606996 18.3828L1.2026 16.1568C1.25208 15.9719 1.22933 15.7521 1.12213 15.5369C0.403707 14.0945 0 12.4683 0 10.75ZM6 9.25C6 8.83579 6.33579 8.5 6.75 8.5H14.75C15.1642 8.5 15.5 8.83579 15.5 9.25C15.5 9.66421 15.1642 10 14.75 10H6.75C6.33579 10 6 9.66421 6 9.25ZM6 12.75C6 12.3358 6.33579 12 6.75 12H12.25C12.6642 12 13 12.3358 13 12.75C13 13.1642 12.6642 13.5 12.25 13.5H6.75C6.33579 13.5 6 13.1642 6 12.75Z" fill="#05162C"/>
</svg>
