<svg width="11" height="16" viewBox="0 0 11 16" fill="none" xmlns="http://www.w3.org/2000/svg">
<path d="M8.865 10.1137C8.59135 9.97623 8.25798 10.0829 8.115 10.3537C7.98287 10.6296 8.09211 10.9607 8.3625 11.1037C9.0225 11.4412 9.3975 11.8537 9.3975 12.2512C9.3975 13.0987 7.6275 14.0437 5.2575 14.0437C2.8875 14.0437 1.11 13.1062 1.11 12.2812C1.11 11.8912 1.485 11.4712 2.145 11.1337C2.34293 11.0544 2.47896 10.8699 2.4963 10.6574C2.51364 10.4448 2.4093 10.2408 2.22685 10.1304C2.04441 10.02 1.81523 10.0223 1.635 10.1362C0.724423 10.4794 0.0896084 11.3123 0 12.2812C0 13.9462 2.25 15.1987 5.25 15.1987C8.25 15.1987 10.5 13.9462 10.5 12.2812C10.4187 11.3039 9.78243 10.4604 8.865 10.1137Z" fill="#145DB8"/>
<path fill-rule="evenodd" clip-rule="evenodd" d="M4.6875 12.6112V9.37124C2.21767 9.07367 0.406896 6.90397 0.555949 4.42074C0.705002 1.93752 2.76231 0 5.25 0C7.73769 0 9.795 1.93752 9.94405 4.42074C10.0931 6.90397 8.28233 9.07367 5.8125 9.37124V12.6112C5.8125 12.9219 5.56066 13.1737 5.25 13.1737C4.93934 13.1737 4.6875 12.9219 4.6875 12.6112ZM8.56817 3.33085C8.01135 1.99055 6.70136 1.1182 5.25 1.12124C3.27591 1.12536 1.67663 2.72465 1.6725 4.69874C1.66947 6.15009 2.54181 7.46009 3.88211 8.0169C5.22241 8.57371 6.7662 8.26747 7.79247 7.24121C8.81874 6.21494 9.12498 4.67115 8.56817 3.33085Z" fill="#145DB8"/>
<path d="M3.4425 5.53124C3.75316 5.53124 4.005 5.2794 4.005 4.96874C4.005 4.10717 4.70344 3.40874 5.565 3.40874C5.87566 3.40874 6.1275 3.1569 6.1275 2.84624C6.1275 2.53558 5.87566 2.28374 5.565 2.28374C4.8509 2.28572 4.16685 2.5713 3.66331 3.07765C3.15977 3.584 2.87801 4.26964 2.88 4.98374C2.88198 5.13094 2.94235 5.27132 3.04785 5.374C3.15334 5.47668 3.2953 5.53324 3.4425 5.53124Z" fill="#145DB8"/>
</svg>
