<svg width="16" height="16" viewBox="0 0 16 16" fill="none" xmlns="http://www.w3.org/2000/svg">
<path d="M5.9745 12.6073L6.43881 12.0183L5.9745 12.6073ZM8.00001 3.66709L7.45964 4.18719C7.60103 4.33408 7.79613 4.41709 8.00001 4.41709C8.20389 4.41709 8.39899 4.33408 8.54038 4.18719L8.00001 3.66709ZM10.0255 12.6073L10.4898 13.1962L10.0255 12.6073ZM5.9745 12.6073L6.43881 12.0183C5.41354 11.21 4.33636 10.4524 3.47913 9.48717C2.64761 8.55085 2.08334 7.47831 2.08334 6.0914H1.33334H0.583344C0.583344 7.94644 1.35889 9.35867 2.35756 10.4832C3.33052 11.5788 4.57392 12.4582 5.51018 13.1962L5.9745 12.6073ZM1.33334 6.0914H2.08334C2.08334 4.75102 2.84036 3.63995 3.85351 3.17683C4.81938 2.73533 6.15164 2.82823 7.45964 4.18719L8.00001 3.66709L8.54038 3.14699C6.84848 1.38917 4.84741 1.07324 3.22992 1.8126C1.65971 2.53035 0.583344 4.18982 0.583344 6.0914H1.33334ZM5.9745 12.6073L5.51018 13.1962C5.84938 13.4636 6.22941 13.7618 6.61843 13.9891C7.0072 14.2163 7.47628 14.4167 8.00001 14.4167V13.6667V12.9167C7.85708 12.9167 7.65948 12.8601 7.37522 12.694C7.09119 12.5281 6.7918 12.2965 6.43881 12.0183L5.9745 12.6073ZM10.0255 12.6073L10.4898 13.1962C11.4261 12.4582 12.6695 11.5788 13.6425 10.4832C14.6411 9.35867 15.4167 7.94644 15.4167 6.0914H14.6667H13.9167C13.9167 7.47831 13.3524 8.55085 12.5209 9.48717C11.6637 10.4524 10.5865 11.21 9.56121 12.0183L10.0255 12.6073ZM14.6667 6.0914H15.4167C15.4167 4.18982 14.3403 2.53035 12.7701 1.8126C11.1526 1.07324 9.15154 1.38917 7.45964 3.14699L8.00001 3.66709L8.54038 4.18719C9.84837 2.82823 11.1806 2.73533 12.1465 3.17683C13.1597 3.63995 13.9167 4.75102 13.9167 6.0914H14.6667ZM10.0255 12.6073L9.56121 12.0183C9.20822 12.2965 8.90883 12.5281 8.6248 12.694C8.34053 12.8601 8.14294 12.9167 8.00001 12.9167V13.6667V14.4167C8.52374 14.4167 8.99282 14.2163 9.38159 13.9891C9.77061 13.7618 10.1506 13.4636 10.4898 13.1962L10.0255 12.6073Z" fill="#1C274C"/>
</svg>
